<?xml version="1.0" standalone="no"?>
<!DOCTYPE svg PUBLIC "-//W3C//DTD SVG 20010904//EN"
 "http://www.w3.org/TR/2001/REC-SVG-20010904/DTD/svg10.dtd">
<svg version="1.0" xmlns="http://www.w3.org/2000/svg"
 width="512.000000pt" height="512.000000pt" viewBox="0 0 512.000000 512.000000"
 preserveAspectRatio="xMidYMid meet">
<metadata>
Created by potrace 1.14, written by Peter Selinger 2001-2017
</metadata>
<g transform="translate(0.000000,512.000000) scale(0.100000,-0.100000)"
fill="#000000" stroke="none">
<path d="M2430 4884 c-14 -2 -59 -9 -100 -15 -134 -19 -231 -48 -280 -84 -170
-125 -451 -488 -582 -751 -72 -144 -82 -207 -53 -326 21 -88 89 -236 138 -300
l36 -46 -87 -49 c-129 -71 -273 -217 -332 -335 -42 -86 -51 -95 -84 -82 -28
11 -17 43 51 156 67 111 113 218 113 263 0 58 -101 129 -210 149 -34 6 -36 4
-60 -42 l-25 -47 -67 -5 c-41 -3 -73 -11 -82 -20 -16 -17 -62 -181 -70 -251
-12 -115 -42 -179 -82 -179 -30 0 -110 -39 -153 -75 l-31 -27 0 -184 c0 -153
3 -191 17 -217 9 -18 19 -68 22 -115 l6 -83 50 -27 c29 -16 55 -39 64 -56 23
-49 43 -204 43 -341 0 -124 2 -135 38 -245 21 -63 40 -131 42 -150 l3 -34
-102 -26 c-101 -26 -251 -93 -260 -116 -7 -19 119 -207 208 -308 4 -4 22 3 41
17 43 33 153 84 199 92 36 7 36 6 45 -37 8 -40 11 -43 44 -46 32 -3 38 -9 73
-71 20 -38 37 -71 37 -74 0 -2 -20 -1 -44 4 -57 11 -319 39 -323 35 -7 -6 208
-207 302 -282 293 -232 657 -405 1025 -487 205 -46 357 -61 580 -60 220 0 342
14 536 59 l111 25 13 107 c20 174 146 758 201 932 28 91 90 169 226 285 106
90 119 106 227 269 109 164 141 226 118 226 -13 0 -57 -51 -101 -117 l-34 -50
-48 21 c-27 11 -49 26 -49 31 0 13 88 104 124 129 23 15 117 185 138 248 6 18
83 -34 102 -69 7 -16 17 -47 21 -71 8 -47 11 -48 79 -22 l25 9 -40 117 c-22
65 -56 156 -75 203 -19 47 -39 118 -44 156 -18 140 -24 162 -72 283 -85 215
-140 312 -233 411 -66 71 -147 132 -238 181 -92 50 -197 155 -233 235 -25 54
-26 59 -11 89 8 17 56 76 106 131 50 55 101 120 113 144 21 44 21 46 5 110
-36 136 -148 353 -222 431 -18 19 -49 63 -69 96 -62 107 -122 145 -371 235
l-120 44 -155 1 c-85 1 -166 0 -180 -2z m-1353 -1636 c-2 -18 -4 -4 -4 32 0
36 2 50 4 33 2 -18 2 -48 0 -65z m1249 26 c19 -45 19 -233 0 -277 -7 -18 -33
-51 -57 -73 -82 -78 -580 -474 -604 -480 -26 -6 -216 91 -266 138 -28 26 -29
28 -29 131 l0 106 83 54 c45 31 132 83 192 117 176 98 647 330 657 324 6 -4
16 -21 24 -40z m640 -20 c271 -53 535 -175 708 -327 l49 -43 -11 -128 c-7 -70
-17 -136 -23 -147 -12 -23 -151 -117 -186 -125 -13 -4 -38 -3 -57 0 -37 7
-199 115 -421 281 -306 229 -299 219 -293 389 2 61 7 116 10 122 10 15 69 9
224 -22z m-1919 -341 c-3 -10 -5 -2 -5 17 0 19 2 27 5 18 2 -10 2 -26 0 -35z
m0 -75 c-3 -7 -5 -2 -5 12 0 14 2 19 5 13 2 -7 2 -19 0 -25z m1756 -50 c45
-33 123 -103 172 -153 147 -151 362 -305 424 -305 40 0 81 23 81 46 0 8 10 14
23 14 12 0 46 14 76 30 l54 30 57 -35 c31 -19 78 -54 103 -78 44 -41 47 -47
47 -94 0 -28 -11 -93 -24 -144 -39 -151 -31 -141 -117 -143 -68 -1 -84 -5
-182 -53 l-107 -52 0 42 c0 39 -5 47 -71 109 -39 38 -75 68 -80 68 -25 0 -2
-38 56 -92 78 -73 84 -101 31 -162 l-33 -38 -26 44 c-32 55 -71 85 -168 131
-64 31 -78 42 -93 75 -20 44 -302 308 -363 341 -18 9 -23 20 -23 49 0 23 -9
51 -25 74 -29 43 -31 54 -9 62 33 13 50 3 148 -87 130 -119 204 -182 290 -246
72 -54 103 -66 69 -28 -11 12 -26 38 -33 57 -9 24 -88 109 -242 262 -247 243
-244 240 -199 292 13 15 62 43 79 46 2 0 40 -28 85 -62z m-2008 -20 c24 -19
27 -26 22 -62 -7 -47 -44 -86 -82 -86 -92 0 -130 82 -68 145 33 32 89 34 128
3z m242 -20 c-3 -8 -6 -5 -6 6 -1 11 2 17 5 13 3 -3 4 -12 1 -19z m-10 -90
c-3 -7 -5 -2 -5 12 0 14 2 19 5 13 2 -7 2 -19 0 -25z m2802 -157 c100 -36 113
-54 120 -173 l6 -93 36 -23 37 -24 -50 -106 c-27 -59 -60 -117 -72 -130 -21
-22 -26 -22 -69 -11 -39 9 -45 14 -37 28 9 18 54 192 64 252 4 20 2 47 -3 61
-12 33 -74 92 -147 140 l-62 41 42 33 c22 18 46 33 51 33 6 0 43 -12 84 -28z
m-3000 -488 c12 -81 14 -258 2 -318 -5 -30 -9 -2 -13 105 -4 93 -12 164 -23
199 -14 44 -14 58 -4 83 16 39 24 24 38 -69z m408 -65 c-3 -7 -5 -2 -5 12 0
14 2 19 5 13 2 -7 2 -19 0 -25z m1148 -24 c-11 -8 -54 -33 -96 -55 -69 -36
-166 -119 -191 -163 -13 -23 -23 -20 -37 10 -9 21 -8 30 8 53 55 77 138 128
251 156 76 18 90 18 65 -1z m480 -29 c69 -32 178 -113 189 -140 2 -7 -4 -25
-14 -38 l-20 -25 -42 40 c-52 49 -191 154 -230 174 -15 8 -28 19 -28 24 0 16
74 -1 145 -35z m-1618 -87 c-2 -13 -4 -5 -4 17 -1 22 1 32 4 23 2 -10 2 -28 0
-40z m788 -189 c-16 -49 -35 -160 -35 -204 0 -27 9 -99 19 -160 15 -87 16
-105 5 -90 -25 34 -53 140 -60 227 -7 87 5 169 34 242 14 36 16 37 29 20 7
-10 11 -25 8 -35z m-788 -121 c-3 -7 -5 -2 -5 12 0 14 2 19 5 13 2 -7 2 -19 0
-25z m-39 -95 c27 -64 34 -117 24 -178 -8 -46 -9 -44 -9 35 1 91 -23 170 -50
170 -8 0 -11 5 -8 10 12 19 23 10 43 -37z m-24 -34 c20 -40 36 -81 35 -93 0
-13 -5 -5 -13 19 -15 49 -43 104 -64 128 -8 9 -10 17 -4 17 6 0 27 -32 46 -71z
m-109 31 c9 -17 13 -35 10 -39 -3 -5 0 -11 5 -13 12 -4 34 -129 27 -155 -3
-10 -5 -4 -6 13 -2 47 -38 157 -61 187 -19 24 -18 27 7 36 1 1 10 -13 18 -29z
m172 -282 c-2 -24 -4 -5 -4 42 0 47 2 66 4 43 2 -24 2 -62 0 -85z m-9 -78 c1
-23 0 -23 -8 -5 -5 11 -8 36 -8 55 l0 35 8 -30 c4 -16 8 -41 8 -55z m-27 -96
c-12 -26 -19 -49 -17 -51 2 -3 59 -6 127 -8 101 -2 123 -5 131 -19 6 -11 5
-18 -4 -21 -55 -19 -75 -29 -121 -58 -53 -34 -53 -34 -112 -22 -53 10 -64 17
-109 67 -28 31 -59 70 -69 87 l-18 31 25 0 c14 0 28 -4 31 -10 3 -5 21 -10 40
-10 21 0 37 -6 43 -16 10 -18 32 -11 32 9 0 7 -4 6 -11 -3 -9 -12 -9 -11 -3 5
4 11 14 41 23 67 15 43 17 45 24 23 6 -17 2 -38 -12 -71z m298 -204 c17 -33
29 -60 28 -60 -1 0 -42 13 -90 28 -82 26 -87 29 -70 44 23 20 74 47 90 48 7 0
26 -27 42 -60z"/>
<path d="M1196 955 c-9 -26 -7 -32 5 -12 6 10 9 21 6 23 -2 3 -7 -2 -11 -11z"/>
<path d="M244 3505 c-3 -14 12 -159 35 -323 75 -547 81 -619 60 -681 -8 -23
-8 -67 0 -164 13 -147 55 -442 71 -508 7 -24 15 -62 19 -84 13 -69 45 -147 68
-162 25 -17 56 -5 73 27 8 15 21 20 51 20 l41 0 -7 53 c-11 80 -34 138 -71
179 -35 39 -51 79 -40 100 4 7 13 24 21 38 17 29 19 97 5 135 -6 16 -24 31
-47 41 -21 8 -44 18 -52 22 -22 13 -73 323 -64 392 4 30 6 62 5 70 -12 102
-97 684 -108 740 -22 120 -46 161 -60 105z m113 -1042 c-3 -10 -5 -4 -5 12 0
17 2 24 5 18 2 -7 2 -21 0 -30z m10 -75 c-2 -13 -4 -5 -4 17 -1 22 1 32 4 23
2 -10 2 -28 0 -40z m10 -80 c-2 -13 -4 -5 -4 17 -1 22 1 32 4 23 2 -10 2 -28
0 -40z m10 -90 c-2 -13 -4 -3 -4 22 0 25 2 35 4 23 2 -13 2 -33 0 -45z m10
-105 c-2 -16 -4 -5 -4 22 0 28 2 40 4 28 2 -13 2 -35 0 -50z m10 -110 c-2 -16
-4 -3 -4 27 0 30 2 43 4 28 2 -16 2 -40 0 -55z m10 -120 c-2 -16 -4 -3 -4 27
0 30 2 43 4 28 2 -16 2 -40 0 -55z"/>
<path d="M3825 428 c-197 -22 -351 -73 -404 -134 -34 -38 -106 -163 -98 -170
8 -8 225 75 342 132 107 51 315 170 315 179 0 7 -60 4 -155 -7z"/>
</g>
</svg>
